<svg version="1.1" id="Layer_1" xmlns="http://www.w3.org/2000/svg" xmlns:xlink="http://www.w3.org/1999/xlink" x="0px" y="0px"
	 width="100%" viewBox="0 0 352 352" enable-background="new 0 0 352 352" xml:space="preserve">
<path fill="#000000" opacity="1.000000" stroke="none" 
	d="
M1.000000,351.500000 
	C3.417276,351.884064 5.939514,351.638855 8.426933,351.639069 
	C120.393181,351.648987 232.359436,351.646698 344.325684,351.640472 
	C351.569794,351.640076 351.596069,351.620300 351.597321,344.571136 
	C351.617157,232.604904 351.596252,120.638641 351.752838,8.672610 
	C351.759918,3.593237 350.377289,2.237180 345.312286,2.243622 
	C233.179611,2.386255 121.046707,2.354992 8.913839,2.348156 
	C6.583119,2.348014 4.252405,2.245278 1.460844,2.095201 
	C2.109299,-0.091487 4.036298,1.063781 5.500059,1.062363 
	C78.833305,0.991321 152.166626,1.000000 225.499939,1.000000 
	C267.999939,1.000000 310.499908,1.000000 352.999939,1.000000 
	C352.999939,118.333275 352.999939,235.666550 352.999969,352.999908 
	C237.166748,353.000000 121.333504,353.005493 5.500287,352.937927 
	C4.036672,352.937073 2.109376,354.091614 1.000000,351.500000 
z"/>
<path fill="#000000" opacity="1.000000" stroke="none" 
	d="
M59.867271,178.392120 
	C64.293449,152.825226 76.959976,133.208862 99.462608,120.942047 
	C128.049896,105.358322 156.279846,107.256210 183.452209,124.879234 
	C186.587082,126.912392 188.484924,127.192978 191.665222,124.905411 
	C208.222366,112.995918 227.116135,108.377739 246.998123,111.133087 
	C278.833801,115.545036 305.918793,136.727280 313.902985,171.387741 
	C323.212860,211.803192 298.561340,251.450943 258.578674,262.559174 
	C234.705887,269.191681 212.439621,265.324921 191.959671,251.650970 
	C188.418030,249.286331 186.285797,249.510925 182.980957,251.790390 
	C140.227676,281.278656 79.625160,261.356110 63.517456,212.826721 
	C59.811214,201.660568 59.259159,190.369095 59.867271,178.392120 
M240.829056,169.145813 
	C241.291260,172.264603 242.040558,175.371490 242.170334,178.504044 
	C243.217438,203.779495 216.831833,221.578537 195.366516,214.697632 
	C178.659729,209.342148 168.222626,196.718170 167.818420,179.228287 
	C167.792648,178.112839 167.593796,177.001389 167.475449,175.888077 
	C160.344101,215.023148 186.924561,252.554199 228.723480,257.598846 
	C263.259583,261.766937 302.323364,238.626846 307.507751,195.748489 
	C311.233215,164.936066 292.427917,125.750908 245.934479,118.831161 
	C212.775848,113.896080 178.772049,134.964127 170.032379,166.145020 
	C182.027115,145.302643 212.491028,134.401779 220.480103,148.093369 
	C214.270630,151.757339 211.896103,154.995026 212.484680,159.352646 
	C213.100128,163.909195 215.606400,167.253113 220.099304,168.251083 
	C228.165833,170.042801 231.685471,164.615738 234.110168,157.834595 
	C238.021683,160.843201 238.719818,164.944931 240.829056,169.145813 
M147.738434,257.145813 
	C160.131409,255.930038 171.014740,251.030533 181.400467,243.665192 
	C179.029236,240.827194 176.846008,238.364670 174.827362,235.773895 
	C160.781570,217.747421 155.349350,197.312851 159.225082,174.874802 
	C161.728836,160.379623 168.192810,147.395096 178.287827,136.494415 
	C180.844849,133.733276 180.922806,132.027786 177.629333,129.895996 
	C167.942459,123.625893 157.295807,119.656166 145.976044,118.561844 
	C125.731873,116.604782 107.446579,122.163979 91.672928,135.269028 
	C85.000336,140.812744 80.670013,146.252838 79.311295,150.580353 
	C91.121399,143.449173 103.753113,142.515533 109.062737,148.381348 
	C102.230728,152.067856 99.874054,155.962753 101.491798,161.704071 
	C102.612411,165.681091 105.263954,168.805573 109.655663,168.491592 
	C118.086891,167.888824 118.507828,161.188950 118.749084,153.596909 
	C128.603821,163.418076 130.945251,174.621017 128.951538,186.338806 
	C126.746689,199.297546 119.204079,209.272980 106.171097,212.979706 
	C88.847984,217.906616 76.840523,209.594757 67.861748,194.265625 
	C70.568398,233.734131 108.331909,262.727997 147.738434,257.145813 
z"/>
<path fill="#000000" opacity="1.000000" stroke="none" 
	d="
M288.051086,55.897797 
	C299.207886,58.010654 310.023895,59.550011 321.809753,60.100094 
	C318.267120,67.835876 313.130188,73.968811 310.730042,81.578468 
	C308.271667,89.372765 310.555389,97.404648 308.691467,105.958885 
	C282.494598,91.094711 254.403641,84.346169 224.552444,81.966492 
	C235.426132,68.854431 238.749481,54.183727 236.211975,36.599972 
	C253.770721,45.142181 270.052429,52.336819 288.051086,55.897797 
z"/>
<path fill="#000000" opacity="1.000000" stroke="none" 
	d="
M132.289490,51.638615 
	C145.501953,55.822540 158.802765,57.483017 173.684326,59.160889 
	C164.188553,70.244034 159.941483,82.052849 161.920364,96.076561 
	C137.706039,83.990906 112.970879,76.636276 84.893860,74.540375 
	C95.392311,63.482887 98.662567,51.524284 96.277748,36.877094 
	C108.978775,42.491608 120.028702,48.078430 132.289490,51.638615 
z"/>
</svg>